<mxfile host="app.diagrams.net" modified="2023-11-02T04:19:17.722Z" agent="Mozilla/5.0 (Windows NT 10.0; Win64; x64) AppleWebKit/537.36 (KHTML, like Gecko) Chrome/119.0.0.0 Safari/537.36" etag="Cf-GcuP416l13M0GbWKB" version="22.0.8" type="device">
  <diagram name="Page-1" id="LH5AXXtx_nH838pcfW0p">
    <mxGraphModel dx="4876" dy="1824" grid="1" gridSize="10" guides="1" tooltips="1" connect="1" arrows="1" fold="1" page="1" pageScale="1" pageWidth="850" pageHeight="1100" math="0" shadow="0">
      <root>
        <mxCell id="0" />
        <mxCell id="1" parent="0" />
        <mxCell id="g5sbJeMvWJrhKsOIn0ZZ-3" value="&lt;b&gt;Users&lt;/b&gt;" style="shape=umlActor;verticalLabelPosition=bottom;verticalAlign=top;html=1;outlineConnect=0;" parent="1" vertex="1">
          <mxGeometry x="20" y="380" width="40" height="70" as="geometry" />
        </mxCell>
        <mxCell id="g5sbJeMvWJrhKsOIn0ZZ-15" style="edgeStyle=orthogonalEdgeStyle;rounded=0;orthogonalLoop=1;jettySize=auto;html=1;exitX=0.5;exitY=0;exitDx=0;exitDy=0;exitPerimeter=0;" parent="1" source="g5sbJeMvWJrhKsOIn0ZZ-4" edge="1">
          <mxGeometry relative="1" as="geometry">
            <mxPoint x="40" y="480" as="targetPoint" />
            <mxPoint x="60" y="560" as="sourcePoint" />
          </mxGeometry>
        </mxCell>
        <mxCell id="g5sbJeMvWJrhKsOIn0ZZ-4" value="&lt;b&gt;Donor&lt;/b&gt;" style="shape=umlActor;verticalLabelPosition=bottom;verticalAlign=top;html=1;outlineConnect=0;" parent="1" vertex="1">
          <mxGeometry x="60" y="560" width="30" height="60" as="geometry" />
        </mxCell>
        <mxCell id="g5sbJeMvWJrhKsOIn0ZZ-16" style="edgeStyle=orthogonalEdgeStyle;rounded=0;orthogonalLoop=1;jettySize=auto;html=1;exitX=0.5;exitY=0;exitDx=0;exitDy=0;exitPerimeter=0;" parent="1" source="g5sbJeMvWJrhKsOIn0ZZ-9" edge="1">
          <mxGeometry relative="1" as="geometry">
            <mxPoint x="40" y="480" as="targetPoint" />
          </mxGeometry>
        </mxCell>
        <mxCell id="g5sbJeMvWJrhKsOIn0ZZ-9" value="&lt;b&gt;Farmer&lt;/b&gt;" style="shape=umlActor;verticalLabelPosition=bottom;verticalAlign=top;html=1;outlineConnect=0;" parent="1" vertex="1">
          <mxGeometry x="-10" y="560" width="30" height="60" as="geometry" />
        </mxCell>
        <mxCell id="g5sbJeMvWJrhKsOIn0ZZ-10" value="&lt;b&gt;NGO Admin&lt;/b&gt;" style="shape=umlActor;verticalLabelPosition=bottom;verticalAlign=top;html=1;outlineConnect=0;" parent="1" vertex="1">
          <mxGeometry x="770" y="630" width="50" height="80" as="geometry" />
        </mxCell>
        <mxCell id="g5sbJeMvWJrhKsOIn0ZZ-11" value="&lt;b&gt;Volunteer&lt;/b&gt;" style="shape=umlActor;verticalLabelPosition=bottom;verticalAlign=top;html=1;outlineConnect=0;" parent="1" vertex="1">
          <mxGeometry x="770" y="355" width="50" height="80" as="geometry" />
        </mxCell>
        <mxCell id="g5sbJeMvWJrhKsOIn0ZZ-12" value="" style="rounded=0;whiteSpace=wrap;html=1;" parent="1" vertex="1">
          <mxGeometry x="110" y="60" width="620" height="790" as="geometry" />
        </mxCell>
        <mxCell id="g5sbJeMvWJrhKsOIn0ZZ-17" value="&lt;font style=&quot;font-size: 16px;&quot;&gt;&lt;b&gt;Register details&lt;/b&gt;&lt;/font&gt;" style="ellipse;whiteSpace=wrap;html=1;" parent="1" vertex="1">
          <mxGeometry x="200" y="190" width="140" height="70" as="geometry" />
        </mxCell>
        <mxCell id="g5sbJeMvWJrhKsOIn0ZZ-18" value="&lt;font style=&quot;font-size: 16px;&quot;&gt;&lt;b&gt;Login&lt;/b&gt;&lt;/font&gt;" style="ellipse;whiteSpace=wrap;html=1;" parent="1" vertex="1">
          <mxGeometry x="350" y="240" width="110" height="55" as="geometry" />
        </mxCell>
        <mxCell id="g5sbJeMvWJrhKsOIn0ZZ-34" style="rounded=0;orthogonalLoop=1;jettySize=auto;html=1;endArrow=none;endFill=0;entryX=0;entryY=1;entryDx=0;entryDy=0;entryPerimeter=0;exitX=1;exitY=0.5;exitDx=0;exitDy=0;" parent="1" source="g5sbJeMvWJrhKsOIn0ZZ-46" target="g5sbJeMvWJrhKsOIn0ZZ-10" edge="1">
          <mxGeometry relative="1" as="geometry">
            <mxPoint x="760" y="180" as="targetPoint" />
            <mxPoint x="404.49747468305804" y="768.7867965644032" as="sourcePoint" />
          </mxGeometry>
        </mxCell>
        <mxCell id="g5sbJeMvWJrhKsOIn0ZZ-36" style="rounded=0;orthogonalLoop=1;jettySize=auto;html=1;exitX=0;exitY=0.5;exitDx=0;exitDy=0;endArrow=none;endFill=0;" parent="1" source="g5sbJeMvWJrhKsOIn0ZZ-19" edge="1">
          <mxGeometry relative="1" as="geometry">
            <mxPoint x="60" y="450" as="targetPoint" />
          </mxGeometry>
        </mxCell>
        <mxCell id="g5sbJeMvWJrhKsOIn0ZZ-19" value="&lt;font style=&quot;font-size: 16px;&quot;&gt;&lt;b&gt;View History&lt;/b&gt;&lt;/font&gt;" style="ellipse;whiteSpace=wrap;html=1;" parent="1" vertex="1">
          <mxGeometry x="230" y="610" width="140" height="60" as="geometry" />
        </mxCell>
        <mxCell id="g5sbJeMvWJrhKsOIn0ZZ-20" value="&lt;font style=&quot;font-size: 16px;&quot;&gt;&lt;b&gt;Take Membership&lt;/b&gt;&lt;/font&gt;" style="ellipse;whiteSpace=wrap;html=1;" parent="1" vertex="1">
          <mxGeometry x="550" y="560" width="160" height="80" as="geometry" />
        </mxCell>
        <mxCell id="g5sbJeMvWJrhKsOIn0ZZ-43" style="rounded=0;orthogonalLoop=1;jettySize=auto;html=1;exitX=1;exitY=0.5;exitDx=0;exitDy=0;entryX=0;entryY=0.5;entryDx=0;entryDy=0;endArrow=open;endFill=0;dashed=1;" parent="1" source="g5sbJeMvWJrhKsOIn0ZZ-21" target="g5sbJeMvWJrhKsOIn0ZZ-41" edge="1">
          <mxGeometry relative="1" as="geometry" />
        </mxCell>
        <mxCell id="H-FCuesiG5nVkV9vHhXY-22" value="&amp;lt;&amp;lt;&lt;b&gt;Include&lt;/b&gt;&amp;gt;&amp;gt;" style="edgeLabel;html=1;align=center;verticalAlign=middle;resizable=0;points=[];" parent="g5sbJeMvWJrhKsOIn0ZZ-43" vertex="1" connectable="0">
          <mxGeometry x="0.0079" y="1" relative="1" as="geometry">
            <mxPoint as="offset" />
          </mxGeometry>
        </mxCell>
        <mxCell id="g5sbJeMvWJrhKsOIn0ZZ-21" value="&lt;font style=&quot;font-size: 16px;&quot;&gt;&lt;b&gt;Food donate&lt;/b&gt;&lt;/font&gt;" style="ellipse;whiteSpace=wrap;html=1;" parent="1" vertex="1">
          <mxGeometry x="200" y="400" width="120" height="60" as="geometry" />
        </mxCell>
        <mxCell id="g5sbJeMvWJrhKsOIn0ZZ-44" style="rounded=0;orthogonalLoop=1;jettySize=auto;html=1;exitX=1;exitY=0.5;exitDx=0;exitDy=0;endArrow=none;endFill=0;entryX=0;entryY=0.3333333333333333;entryDx=0;entryDy=0;entryPerimeter=0;" parent="1" source="g5sbJeMvWJrhKsOIn0ZZ-22" target="g5sbJeMvWJrhKsOIn0ZZ-11" edge="1">
          <mxGeometry relative="1" as="geometry">
            <mxPoint x="770" y="450" as="targetPoint" />
          </mxGeometry>
        </mxCell>
        <mxCell id="g5sbJeMvWJrhKsOIn0ZZ-45" style="rounded=0;orthogonalLoop=1;jettySize=auto;html=1;exitX=0;exitY=0.5;exitDx=0;exitDy=0;endArrow=none;endFill=0;" parent="1" source="g5sbJeMvWJrhKsOIn0ZZ-22" edge="1">
          <mxGeometry relative="1" as="geometry">
            <mxPoint x="60" y="450" as="targetPoint" />
          </mxGeometry>
        </mxCell>
        <mxCell id="g5sbJeMvWJrhKsOIn0ZZ-22" value="&lt;font style=&quot;font-size: 16px;&quot;&gt;&lt;b&gt;Donation rating&lt;/b&gt;&lt;/font&gt;" style="ellipse;whiteSpace=wrap;html=1;" parent="1" vertex="1">
          <mxGeometry x="310" y="500" width="120" height="60" as="geometry" />
        </mxCell>
        <mxCell id="g5sbJeMvWJrhKsOIn0ZZ-23" style="rounded=0;orthogonalLoop=1;jettySize=auto;html=1;exitX=0.5;exitY=1;exitDx=0;exitDy=0;entryX=0;entryY=1;entryDx=0;entryDy=0;entryPerimeter=0;endArrow=none;endFill=0;" parent="1" source="g5sbJeMvWJrhKsOIn0ZZ-20" target="g5sbJeMvWJrhKsOIn0ZZ-10" edge="1">
          <mxGeometry relative="1" as="geometry">
            <mxPoint x="672.4264068711927" y="758.7867965644032" as="sourcePoint" />
          </mxGeometry>
        </mxCell>
        <mxCell id="g5sbJeMvWJrhKsOIn0ZZ-27" style="rounded=0;orthogonalLoop=1;jettySize=auto;html=1;exitX=0.5;exitY=0;exitDx=0;exitDy=0;entryX=0;entryY=0.3333333333333333;entryDx=0;entryDy=0;entryPerimeter=0;endArrow=none;endFill=0;" parent="1" source="g5sbJeMvWJrhKsOIn0ZZ-20" target="g5sbJeMvWJrhKsOIn0ZZ-11" edge="1">
          <mxGeometry relative="1" as="geometry" />
        </mxCell>
        <mxCell id="g5sbJeMvWJrhKsOIn0ZZ-28" style="rounded=0;orthogonalLoop=1;jettySize=auto;html=1;exitX=1;exitY=1;exitDx=0;exitDy=0;exitPerimeter=0;endArrow=none;endFill=0;entryX=0;entryY=0.5;entryDx=0;entryDy=0;" parent="1" source="g5sbJeMvWJrhKsOIn0ZZ-3" target="g5sbJeMvWJrhKsOIn0ZZ-18" edge="1">
          <mxGeometry relative="1" as="geometry">
            <mxPoint x="340" y="490" as="targetPoint" />
          </mxGeometry>
        </mxCell>
        <mxCell id="g5sbJeMvWJrhKsOIn0ZZ-29" style="rounded=0;orthogonalLoop=1;jettySize=auto;html=1;exitX=1;exitY=1;exitDx=0;exitDy=0;entryX=0;entryY=0.3333333333333333;entryDx=0;entryDy=0;entryPerimeter=0;endArrow=none;endFill=0;" parent="1" source="g5sbJeMvWJrhKsOIn0ZZ-18" target="g5sbJeMvWJrhKsOIn0ZZ-11" edge="1">
          <mxGeometry relative="1" as="geometry" />
        </mxCell>
        <mxCell id="g5sbJeMvWJrhKsOIn0ZZ-31" style="rounded=0;orthogonalLoop=1;jettySize=auto;html=1;exitX=0;exitY=1;exitDx=0;exitDy=0;entryX=1;entryY=1;entryDx=0;entryDy=0;entryPerimeter=0;endArrow=none;endFill=0;" parent="1" source="g5sbJeMvWJrhKsOIn0ZZ-17" target="g5sbJeMvWJrhKsOIn0ZZ-3" edge="1">
          <mxGeometry relative="1" as="geometry" />
        </mxCell>
        <mxCell id="g5sbJeMvWJrhKsOIn0ZZ-32" style="rounded=0;orthogonalLoop=1;jettySize=auto;html=1;exitX=1;exitY=0.5;exitDx=0;exitDy=0;entryX=0;entryY=0.3333333333333333;entryDx=0;entryDy=0;entryPerimeter=0;endArrow=none;endFill=0;" parent="1" source="g5sbJeMvWJrhKsOIn0ZZ-19" target="g5sbJeMvWJrhKsOIn0ZZ-11" edge="1">
          <mxGeometry relative="1" as="geometry" />
        </mxCell>
        <mxCell id="g5sbJeMvWJrhKsOIn0ZZ-40" style="rounded=0;orthogonalLoop=1;jettySize=auto;html=1;exitX=0;exitY=0.5;exitDx=0;exitDy=0;entryX=1;entryY=1;entryDx=0;entryDy=0;entryPerimeter=0;endArrow=none;endFill=0;" parent="1" source="g5sbJeMvWJrhKsOIn0ZZ-21" target="g5sbJeMvWJrhKsOIn0ZZ-3" edge="1">
          <mxGeometry relative="1" as="geometry" />
        </mxCell>
        <mxCell id="g5sbJeMvWJrhKsOIn0ZZ-42" style="rounded=0;orthogonalLoop=1;jettySize=auto;html=1;exitX=1;exitY=0.5;exitDx=0;exitDy=0;endArrow=none;endFill=0;" parent="1" source="g5sbJeMvWJrhKsOIn0ZZ-41" edge="1">
          <mxGeometry relative="1" as="geometry">
            <mxPoint x="770" y="381" as="targetPoint" />
            <mxPoint x="519.9999999999995" y="480" as="sourcePoint" />
          </mxGeometry>
        </mxCell>
        <mxCell id="g5sbJeMvWJrhKsOIn0ZZ-41" value="&lt;font style=&quot;font-size: 16px;&quot;&gt;&lt;b&gt;Food donate info&lt;/b&gt;&lt;/font&gt;" style="ellipse;whiteSpace=wrap;html=1;" parent="1" vertex="1">
          <mxGeometry x="450" y="395" width="130" height="70" as="geometry" />
        </mxCell>
        <mxCell id="g5sbJeMvWJrhKsOIn0ZZ-48" style="rounded=0;orthogonalLoop=1;jettySize=auto;html=1;exitX=1;exitY=0;exitDx=0;exitDy=0;endArrow=none;endFill=0;entryX=0;entryY=0.3333333333333333;entryDx=0;entryDy=0;entryPerimeter=0;" parent="1" source="g5sbJeMvWJrhKsOIn0ZZ-46" target="g5sbJeMvWJrhKsOIn0ZZ-11" edge="1">
          <mxGeometry relative="1" as="geometry">
            <mxPoint x="770" y="450" as="targetPoint" />
          </mxGeometry>
        </mxCell>
        <mxCell id="g5sbJeMvWJrhKsOIn0ZZ-49" style="rounded=0;orthogonalLoop=1;jettySize=auto;html=1;exitX=0;exitY=0;exitDx=0;exitDy=0;endArrow=none;endFill=0;" parent="1" source="g5sbJeMvWJrhKsOIn0ZZ-46" edge="1">
          <mxGeometry relative="1" as="geometry">
            <mxPoint x="60" y="450" as="targetPoint" />
          </mxGeometry>
        </mxCell>
        <mxCell id="g5sbJeMvWJrhKsOIn0ZZ-46" value="&lt;font style=&quot;font-size: 16px;&quot;&gt;&lt;b&gt;Complain with admin&lt;/b&gt;&lt;/font&gt;" style="ellipse;whiteSpace=wrap;html=1;" parent="1" vertex="1">
          <mxGeometry x="210" y="740" width="140" height="70" as="geometry" />
        </mxCell>
        <mxCell id="H-FCuesiG5nVkV9vHhXY-5" style="rounded=0;orthogonalLoop=1;jettySize=auto;html=1;exitX=0.5;exitY=0;exitDx=0;exitDy=0;entryX=0;entryY=1;entryDx=0;entryDy=0;endArrow=none;endFill=0;dashed=1;startArrow=open;startFill=0;" parent="1" source="H-FCuesiG5nVkV9vHhXY-3" target="g5sbJeMvWJrhKsOIn0ZZ-20" edge="1">
          <mxGeometry relative="1" as="geometry" />
        </mxCell>
        <mxCell id="M54h-lhk4MuvC9YHBH8j-53" value="&amp;lt;&amp;lt;&lt;b&gt;Include&lt;/b&gt;&amp;gt;&amp;gt;" style="edgeLabel;html=1;align=center;verticalAlign=middle;resizable=0;points=[];" vertex="1" connectable="0" parent="H-FCuesiG5nVkV9vHhXY-5">
          <mxGeometry x="0.0527" y="4" relative="1" as="geometry">
            <mxPoint as="offset" />
          </mxGeometry>
        </mxCell>
        <mxCell id="H-FCuesiG5nVkV9vHhXY-3" value="&lt;font style=&quot;font-size: 16px;&quot;&gt;Privilege&lt;/font&gt;" style="ellipse;whiteSpace=wrap;html=1;" parent="1" vertex="1">
          <mxGeometry x="425" y="680" width="100" height="50" as="geometry" />
        </mxCell>
        <mxCell id="H-FCuesiG5nVkV9vHhXY-8" style="rounded=0;orthogonalLoop=1;jettySize=auto;html=1;exitX=0;exitY=1;exitDx=0;exitDy=0;entryX=1;entryY=0;entryDx=0;entryDy=0;endArrow=open;endFill=0;dashed=1;startArrow=none;startFill=0;" parent="1" source="H-FCuesiG5nVkV9vHhXY-10" target="g5sbJeMvWJrhKsOIn0ZZ-18" edge="1">
          <mxGeometry relative="1" as="geometry">
            <mxPoint x="660" y="270" as="targetPoint" />
          </mxGeometry>
        </mxCell>
        <mxCell id="H-FCuesiG5nVkV9vHhXY-9" value="&amp;lt;&amp;lt;&lt;b&gt;Extends&lt;/b&gt;&amp;gt;&amp;gt;" style="edgeLabel;html=1;align=center;verticalAlign=middle;resizable=0;points=[];rotation=0;" parent="H-FCuesiG5nVkV9vHhXY-8" vertex="1" connectable="0">
          <mxGeometry x="-0.06" y="3" relative="1" as="geometry">
            <mxPoint as="offset" />
          </mxGeometry>
        </mxCell>
        <mxCell id="H-FCuesiG5nVkV9vHhXY-10" value="&lt;font style=&quot;font-size: 16px;&quot;&gt;Error Message&lt;/font&gt;" style="ellipse;whiteSpace=wrap;html=1;" parent="1" vertex="1">
          <mxGeometry x="580" y="135" width="100" height="50" as="geometry" />
        </mxCell>
        <mxCell id="H-FCuesiG5nVkV9vHhXY-11" value="&lt;font style=&quot;font-size: 16px;&quot;&gt;Verification&lt;/font&gt;" style="ellipse;whiteSpace=wrap;html=1;" parent="1" vertex="1">
          <mxGeometry x="600" y="255" width="110" height="55" as="geometry" />
        </mxCell>
        <mxCell id="H-FCuesiG5nVkV9vHhXY-13" style="rounded=0;orthogonalLoop=1;jettySize=auto;html=1;exitX=1;exitY=0.5;exitDx=0;exitDy=0;entryX=0;entryY=0.5;entryDx=0;entryDy=0;endArrow=open;endFill=0;dashed=1;" parent="1" source="g5sbJeMvWJrhKsOIn0ZZ-18" target="H-FCuesiG5nVkV9vHhXY-11" edge="1">
          <mxGeometry relative="1" as="geometry">
            <mxPoint x="486" y="383" as="targetPoint" />
            <mxPoint x="440" y="340" as="sourcePoint" />
          </mxGeometry>
        </mxCell>
        <mxCell id="H-FCuesiG5nVkV9vHhXY-14" value="&amp;lt;&amp;lt;&lt;b&gt;Include&lt;/b&gt;&amp;gt;&amp;gt;" style="edgeLabel;html=1;align=center;verticalAlign=middle;resizable=0;points=[];rotation=0;" parent="H-FCuesiG5nVkV9vHhXY-13" vertex="1" connectable="0">
          <mxGeometry x="-0.06" y="3" relative="1" as="geometry">
            <mxPoint x="-4" y="2" as="offset" />
          </mxGeometry>
        </mxCell>
        <mxCell id="H-FCuesiG5nVkV9vHhXY-15" style="rounded=0;orthogonalLoop=1;jettySize=auto;html=1;exitX=0;exitY=0.5;exitDx=0;exitDy=0;entryX=0.8;entryY=0.143;entryDx=0;entryDy=0;endArrow=none;endFill=0;dashed=1;startArrow=open;startFill=0;entryPerimeter=0;" parent="1" source="H-FCuesiG5nVkV9vHhXY-17" target="g5sbJeMvWJrhKsOIn0ZZ-17" edge="1">
          <mxGeometry relative="1" as="geometry">
            <mxPoint x="338.4974746830569" y="219.74873734152845" as="targetPoint" />
            <mxPoint x="439.0000000000002" y="275" as="sourcePoint" />
          </mxGeometry>
        </mxCell>
        <mxCell id="H-FCuesiG5nVkV9vHhXY-16" value="&amp;lt;&amp;lt;&lt;b&gt;Include&lt;/b&gt;&amp;gt;&amp;gt;" style="edgeLabel;html=1;align=center;verticalAlign=middle;resizable=0;points=[];rotation=0;" parent="H-FCuesiG5nVkV9vHhXY-15" vertex="1" connectable="0">
          <mxGeometry x="-0.06" y="3" relative="1" as="geometry">
            <mxPoint as="offset" />
          </mxGeometry>
        </mxCell>
        <mxCell id="H-FCuesiG5nVkV9vHhXY-17" value="&lt;font style=&quot;font-size: 16px;&quot;&gt;Success Message&lt;/font&gt;" style="ellipse;whiteSpace=wrap;html=1;" parent="1" vertex="1">
          <mxGeometry x="400" y="100" width="110" height="60" as="geometry" />
        </mxCell>
        <mxCell id="H-FCuesiG5nVkV9vHhXY-18" style="rounded=0;orthogonalLoop=1;jettySize=auto;html=1;exitX=1;exitY=1;exitDx=0;exitDy=0;entryX=0.5;entryY=0;entryDx=0;entryDy=0;endArrow=open;endFill=0;dashed=1;startArrow=none;startFill=0;" parent="1" source="H-FCuesiG5nVkV9vHhXY-20" target="g5sbJeMvWJrhKsOIn0ZZ-17" edge="1">
          <mxGeometry relative="1" as="geometry">
            <mxPoint x="370" y="80" as="targetPoint" />
          </mxGeometry>
        </mxCell>
        <mxCell id="H-FCuesiG5nVkV9vHhXY-19" value="&amp;lt;&amp;lt;&lt;b&gt;Extends&lt;/b&gt;&amp;gt;&amp;gt;" style="edgeLabel;html=1;align=center;verticalAlign=middle;resizable=0;points=[];rotation=0;" parent="H-FCuesiG5nVkV9vHhXY-18" vertex="1" connectable="0">
          <mxGeometry x="-0.06" y="3" relative="1" as="geometry">
            <mxPoint as="offset" />
          </mxGeometry>
        </mxCell>
        <mxCell id="H-FCuesiG5nVkV9vHhXY-20" value="&lt;font style=&quot;font-size: 16px;&quot;&gt;Error Message&lt;/font&gt;" style="ellipse;whiteSpace=wrap;html=1;" parent="1" vertex="1">
          <mxGeometry x="140" y="90" width="100" height="50" as="geometry" />
        </mxCell>
        <mxCell id="H-FCuesiG5nVkV9vHhXY-24" style="rounded=0;orthogonalLoop=1;jettySize=auto;html=1;exitX=1;exitY=0.5;exitDx=0;exitDy=0;endArrow=none;endFill=0;" parent="1" source="H-FCuesiG5nVkV9vHhXY-23" edge="1">
          <mxGeometry relative="1" as="geometry">
            <mxPoint x="770" y="382.5" as="targetPoint" />
            <mxPoint x="530.0000000000177" y="322.5" as="sourcePoint" />
          </mxGeometry>
        </mxCell>
        <mxCell id="H-FCuesiG5nVkV9vHhXY-23" value="&lt;font style=&quot;font-size: 16px;&quot;&gt;&lt;b&gt;View Donation info&lt;/b&gt;&lt;/font&gt;" style="ellipse;whiteSpace=wrap;html=1;" parent="1" vertex="1">
          <mxGeometry x="350" y="325" width="130" height="65" as="geometry" />
        </mxCell>
        <mxCell id="M54h-lhk4MuvC9YHBH8j-1" value="&lt;b&gt;Users&lt;/b&gt;" style="shape=umlActor;verticalLabelPosition=bottom;verticalAlign=top;html=1;outlineConnect=0;" vertex="1" parent="1">
          <mxGeometry x="-1200" y="300" width="40" height="70" as="geometry" />
        </mxCell>
        <mxCell id="M54h-lhk4MuvC9YHBH8j-2" style="edgeStyle=orthogonalEdgeStyle;rounded=0;orthogonalLoop=1;jettySize=auto;html=1;exitX=0.5;exitY=0;exitDx=0;exitDy=0;exitPerimeter=0;" edge="1" parent="1" source="M54h-lhk4MuvC9YHBH8j-3">
          <mxGeometry relative="1" as="geometry">
            <mxPoint x="-1180" y="400" as="targetPoint" />
            <mxPoint x="-1160" y="480" as="sourcePoint" />
          </mxGeometry>
        </mxCell>
        <mxCell id="M54h-lhk4MuvC9YHBH8j-3" value="&lt;b&gt;Donor&lt;/b&gt;" style="shape=umlActor;verticalLabelPosition=bottom;verticalAlign=top;html=1;outlineConnect=0;" vertex="1" parent="1">
          <mxGeometry x="-1160" y="480" width="30" height="60" as="geometry" />
        </mxCell>
        <mxCell id="M54h-lhk4MuvC9YHBH8j-4" value="&lt;b&gt;Admin&lt;/b&gt;" style="shape=umlActor;verticalLabelPosition=bottom;verticalAlign=top;html=1;outlineConnect=0;" vertex="1" parent="1">
          <mxGeometry x="-460" y="760" width="50" height="80" as="geometry" />
        </mxCell>
        <mxCell id="M54h-lhk4MuvC9YHBH8j-5" style="edgeStyle=orthogonalEdgeStyle;rounded=0;orthogonalLoop=1;jettySize=auto;html=1;exitX=0.5;exitY=0;exitDx=0;exitDy=0;exitPerimeter=0;" edge="1" parent="1" source="M54h-lhk4MuvC9YHBH8j-6">
          <mxGeometry relative="1" as="geometry">
            <mxPoint x="-1180" y="400" as="targetPoint" />
          </mxGeometry>
        </mxCell>
        <mxCell id="M54h-lhk4MuvC9YHBH8j-6" value="&lt;b&gt;Farmer&lt;/b&gt;" style="shape=umlActor;verticalLabelPosition=bottom;verticalAlign=top;html=1;outlineConnect=0;" vertex="1" parent="1">
          <mxGeometry x="-1230" y="480" width="30" height="60" as="geometry" />
        </mxCell>
        <mxCell id="M54h-lhk4MuvC9YHBH8j-7" value="&lt;b&gt;NGO&lt;/b&gt;" style="shape=umlActor;verticalLabelPosition=bottom;verticalAlign=top;html=1;outlineConnect=0;" vertex="1" parent="1">
          <mxGeometry x="-460" y="120" width="50" height="80" as="geometry" />
        </mxCell>
        <mxCell id="M54h-lhk4MuvC9YHBH8j-8" value="&lt;b&gt;Volunteer&lt;/b&gt;" style="shape=umlActor;verticalLabelPosition=bottom;verticalAlign=top;html=1;outlineConnect=0;" vertex="1" parent="1">
          <mxGeometry x="-450" y="520" width="50" height="80" as="geometry" />
        </mxCell>
        <mxCell id="M54h-lhk4MuvC9YHBH8j-9" value="" style="rounded=0;whiteSpace=wrap;html=1;" vertex="1" parent="1">
          <mxGeometry x="-1110" width="610" height="960" as="geometry" />
        </mxCell>
        <mxCell id="M54h-lhk4MuvC9YHBH8j-10" value="&lt;font style=&quot;font-size: 16px;&quot;&gt;Register details&lt;/font&gt;" style="ellipse;whiteSpace=wrap;html=1;" vertex="1" parent="1">
          <mxGeometry x="-880" y="90" width="140" height="70" as="geometry" />
        </mxCell>
        <mxCell id="M54h-lhk4MuvC9YHBH8j-11" value="&lt;font style=&quot;font-size: 16px;&quot;&gt;Login&lt;/font&gt;" style="ellipse;whiteSpace=wrap;html=1;" vertex="1" parent="1">
          <mxGeometry x="-880" y="380" width="110" height="55" as="geometry" />
        </mxCell>
        <mxCell id="M54h-lhk4MuvC9YHBH8j-12" style="rounded=0;orthogonalLoop=1;jettySize=auto;html=1;exitX=1;exitY=0;exitDx=0;exitDy=0;endArrow=none;endFill=0;entryX=0;entryY=1;entryDx=0;entryDy=0;entryPerimeter=0;" edge="1" parent="1" source="M54h-lhk4MuvC9YHBH8j-14" target="M54h-lhk4MuvC9YHBH8j-7">
          <mxGeometry relative="1" as="geometry">
            <mxPoint x="-460" y="280" as="targetPoint" />
          </mxGeometry>
        </mxCell>
        <mxCell id="M54h-lhk4MuvC9YHBH8j-13" style="rounded=0;orthogonalLoop=1;jettySize=auto;html=1;exitX=0;exitY=0.5;exitDx=0;exitDy=0;endArrow=none;endFill=0;" edge="1" parent="1" source="M54h-lhk4MuvC9YHBH8j-14">
          <mxGeometry relative="1" as="geometry">
            <mxPoint x="-1160" y="370" as="targetPoint" />
          </mxGeometry>
        </mxCell>
        <mxCell id="M54h-lhk4MuvC9YHBH8j-14" value="&lt;font style=&quot;font-size: 16px;&quot;&gt;View History&lt;/font&gt;" style="ellipse;whiteSpace=wrap;html=1;" vertex="1" parent="1">
          <mxGeometry x="-905" y="210" width="140" height="60" as="geometry" />
        </mxCell>
        <mxCell id="M54h-lhk4MuvC9YHBH8j-15" value="&lt;font style=&quot;font-size: 16px;&quot;&gt;Take Membership&lt;/font&gt;" style="ellipse;whiteSpace=wrap;html=1;" vertex="1" parent="1">
          <mxGeometry x="-630" y="340" width="120" height="60" as="geometry" />
        </mxCell>
        <mxCell id="M54h-lhk4MuvC9YHBH8j-16" style="rounded=0;orthogonalLoop=1;jettySize=auto;html=1;exitX=0.5;exitY=1;exitDx=0;exitDy=0;entryX=0;entryY=0;entryDx=0;entryDy=0;endArrow=open;endFill=0;dashed=1;" edge="1" parent="1" source="M54h-lhk4MuvC9YHBH8j-18" target="M54h-lhk4MuvC9YHBH8j-30">
          <mxGeometry relative="1" as="geometry" />
        </mxCell>
        <mxCell id="M54h-lhk4MuvC9YHBH8j-17" value="&amp;lt;&amp;lt;&lt;b&gt;Include&lt;/b&gt;&amp;gt;&amp;gt;" style="edgeLabel;html=1;align=center;verticalAlign=middle;resizable=0;points=[];" vertex="1" connectable="0" parent="M54h-lhk4MuvC9YHBH8j-16">
          <mxGeometry x="0.0079" y="1" relative="1" as="geometry">
            <mxPoint as="offset" />
          </mxGeometry>
        </mxCell>
        <mxCell id="M54h-lhk4MuvC9YHBH8j-18" value="&lt;font style=&quot;font-size: 16px;&quot;&gt;Food donate&lt;/font&gt;" style="ellipse;whiteSpace=wrap;html=1;" vertex="1" parent="1">
          <mxGeometry x="-1000" y="490" width="120" height="60" as="geometry" />
        </mxCell>
        <mxCell id="M54h-lhk4MuvC9YHBH8j-19" style="rounded=0;orthogonalLoop=1;jettySize=auto;html=1;exitX=1;exitY=0.5;exitDx=0;exitDy=0;endArrow=none;endFill=0;entryX=0;entryY=0.3333333333333333;entryDx=0;entryDy=0;entryPerimeter=0;" edge="1" parent="1" source="M54h-lhk4MuvC9YHBH8j-21" target="M54h-lhk4MuvC9YHBH8j-8">
          <mxGeometry relative="1" as="geometry">
            <mxPoint x="-450" y="550" as="targetPoint" />
          </mxGeometry>
        </mxCell>
        <mxCell id="M54h-lhk4MuvC9YHBH8j-20" style="rounded=0;orthogonalLoop=1;jettySize=auto;html=1;exitX=0;exitY=0;exitDx=0;exitDy=0;endArrow=none;endFill=0;" edge="1" parent="1" source="M54h-lhk4MuvC9YHBH8j-21">
          <mxGeometry relative="1" as="geometry">
            <mxPoint x="-1160" y="370" as="targetPoint" />
          </mxGeometry>
        </mxCell>
        <mxCell id="M54h-lhk4MuvC9YHBH8j-21" value="&lt;font style=&quot;font-size: 16px;&quot;&gt;Donation rating&lt;/font&gt;" style="ellipse;whiteSpace=wrap;html=1;" vertex="1" parent="1">
          <mxGeometry x="-890" y="720" width="110" height="60" as="geometry" />
        </mxCell>
        <mxCell id="M54h-lhk4MuvC9YHBH8j-22" style="rounded=0;orthogonalLoop=1;jettySize=auto;html=1;exitX=1;exitY=0;exitDx=0;exitDy=0;entryX=0;entryY=1;entryDx=0;entryDy=0;entryPerimeter=0;endArrow=none;endFill=0;" edge="1" parent="1" source="M54h-lhk4MuvC9YHBH8j-15" target="M54h-lhk4MuvC9YHBH8j-7">
          <mxGeometry relative="1" as="geometry" />
        </mxCell>
        <mxCell id="M54h-lhk4MuvC9YHBH8j-23" style="rounded=0;orthogonalLoop=1;jettySize=auto;html=1;exitX=1;exitY=1;exitDx=0;exitDy=0;entryX=0;entryY=0.3333333333333333;entryDx=0;entryDy=0;entryPerimeter=0;endArrow=none;endFill=0;" edge="1" parent="1" source="M54h-lhk4MuvC9YHBH8j-15" target="M54h-lhk4MuvC9YHBH8j-8">
          <mxGeometry relative="1" as="geometry" />
        </mxCell>
        <mxCell id="M54h-lhk4MuvC9YHBH8j-24" style="rounded=0;orthogonalLoop=1;jettySize=auto;html=1;exitX=1;exitY=1;exitDx=0;exitDy=0;exitPerimeter=0;endArrow=none;endFill=0;entryX=0;entryY=0.5;entryDx=0;entryDy=0;" edge="1" parent="1" source="M54h-lhk4MuvC9YHBH8j-1" target="M54h-lhk4MuvC9YHBH8j-11">
          <mxGeometry relative="1" as="geometry">
            <mxPoint x="-880" y="410" as="targetPoint" />
          </mxGeometry>
        </mxCell>
        <mxCell id="M54h-lhk4MuvC9YHBH8j-25" style="rounded=0;orthogonalLoop=1;jettySize=auto;html=1;exitX=1;exitY=0.5;exitDx=0;exitDy=0;entryX=0;entryY=0.3333333333333333;entryDx=0;entryDy=0;entryPerimeter=0;endArrow=none;endFill=0;" edge="1" parent="1" source="M54h-lhk4MuvC9YHBH8j-11" target="M54h-lhk4MuvC9YHBH8j-8">
          <mxGeometry relative="1" as="geometry" />
        </mxCell>
        <mxCell id="M54h-lhk4MuvC9YHBH8j-26" style="rounded=0;orthogonalLoop=1;jettySize=auto;html=1;exitX=0;exitY=1;exitDx=0;exitDy=0;entryX=1;entryY=1;entryDx=0;entryDy=0;entryPerimeter=0;endArrow=none;endFill=0;" edge="1" parent="1" source="M54h-lhk4MuvC9YHBH8j-10" target="M54h-lhk4MuvC9YHBH8j-1">
          <mxGeometry relative="1" as="geometry" />
        </mxCell>
        <mxCell id="M54h-lhk4MuvC9YHBH8j-27" style="rounded=0;orthogonalLoop=1;jettySize=auto;html=1;exitX=0.5;exitY=1;exitDx=0;exitDy=0;entryX=0;entryY=0.3333333333333333;entryDx=0;entryDy=0;entryPerimeter=0;endArrow=none;endFill=0;" edge="1" parent="1" source="M54h-lhk4MuvC9YHBH8j-14" target="M54h-lhk4MuvC9YHBH8j-8">
          <mxGeometry relative="1" as="geometry" />
        </mxCell>
        <mxCell id="M54h-lhk4MuvC9YHBH8j-28" style="rounded=0;orthogonalLoop=1;jettySize=auto;html=1;exitX=0;exitY=0;exitDx=0;exitDy=0;entryX=1;entryY=1;entryDx=0;entryDy=0;entryPerimeter=0;endArrow=none;endFill=0;" edge="1" parent="1" source="M54h-lhk4MuvC9YHBH8j-18" target="M54h-lhk4MuvC9YHBH8j-1">
          <mxGeometry relative="1" as="geometry" />
        </mxCell>
        <mxCell id="M54h-lhk4MuvC9YHBH8j-29" style="rounded=0;orthogonalLoop=1;jettySize=auto;html=1;exitX=1;exitY=0.5;exitDx=0;exitDy=0;endArrow=none;endFill=0;" edge="1" parent="1" source="M54h-lhk4MuvC9YHBH8j-30">
          <mxGeometry relative="1" as="geometry">
            <mxPoint x="-450" y="546" as="targetPoint" />
          </mxGeometry>
        </mxCell>
        <mxCell id="M54h-lhk4MuvC9YHBH8j-30" value="&lt;font style=&quot;font-size: 16px;&quot;&gt;Food donate info&lt;/font&gt;" style="ellipse;whiteSpace=wrap;html=1;" vertex="1" parent="1">
          <mxGeometry x="-820" y="610" width="120" height="70" as="geometry" />
        </mxCell>
        <mxCell id="M54h-lhk4MuvC9YHBH8j-31" style="rounded=0;orthogonalLoop=1;jettySize=auto;html=1;exitX=1;exitY=0;exitDx=0;exitDy=0;endArrow=none;endFill=0;entryX=0;entryY=0.3333333333333333;entryDx=0;entryDy=0;entryPerimeter=0;" edge="1" parent="1" source="M54h-lhk4MuvC9YHBH8j-33" target="M54h-lhk4MuvC9YHBH8j-8">
          <mxGeometry relative="1" as="geometry">
            <mxPoint x="-450" y="550" as="targetPoint" />
          </mxGeometry>
        </mxCell>
        <mxCell id="M54h-lhk4MuvC9YHBH8j-32" style="rounded=0;orthogonalLoop=1;jettySize=auto;html=1;exitX=0;exitY=0;exitDx=0;exitDy=0;endArrow=none;endFill=0;" edge="1" parent="1" source="M54h-lhk4MuvC9YHBH8j-33">
          <mxGeometry relative="1" as="geometry">
            <mxPoint x="-1160" y="370" as="targetPoint" />
          </mxGeometry>
        </mxCell>
        <mxCell id="M54h-lhk4MuvC9YHBH8j-33" value="&lt;font style=&quot;font-size: 16px;&quot;&gt;Complain with admin&lt;/font&gt;" style="ellipse;whiteSpace=wrap;html=1;" vertex="1" parent="1">
          <mxGeometry x="-920" y="830" width="140" height="70" as="geometry" />
        </mxCell>
        <mxCell id="M54h-lhk4MuvC9YHBH8j-34" style="rounded=0;orthogonalLoop=1;jettySize=auto;html=1;exitX=1;exitY=0.5;exitDx=0;exitDy=0;entryX=0;entryY=1;entryDx=0;entryDy=0;entryPerimeter=0;endArrow=none;endFill=0;" edge="1" parent="1" source="M54h-lhk4MuvC9YHBH8j-33" target="M54h-lhk4MuvC9YHBH8j-4">
          <mxGeometry relative="1" as="geometry" />
        </mxCell>
        <mxCell id="M54h-lhk4MuvC9YHBH8j-35" style="rounded=0;orthogonalLoop=1;jettySize=auto;html=1;exitX=1;exitY=1;exitDx=0;exitDy=0;entryX=0.5;entryY=0;entryDx=0;entryDy=0;endArrow=none;endFill=0;dashed=1;startArrow=open;startFill=0;" edge="1" parent="1" source="M54h-lhk4MuvC9YHBH8j-37" target="M54h-lhk4MuvC9YHBH8j-15">
          <mxGeometry relative="1" as="geometry" />
        </mxCell>
        <mxCell id="M54h-lhk4MuvC9YHBH8j-36" value="&lt;b&gt;&amp;lt;&amp;lt;Include&amp;gt;&amp;gt;&lt;/b&gt;" style="edgeLabel;html=1;align=center;verticalAlign=middle;resizable=0;points=[];rotation=0;" vertex="1" connectable="0" parent="M54h-lhk4MuvC9YHBH8j-35">
          <mxGeometry x="-0.06" y="3" relative="1" as="geometry">
            <mxPoint as="offset" />
          </mxGeometry>
        </mxCell>
        <mxCell id="M54h-lhk4MuvC9YHBH8j-37" value="&lt;font style=&quot;font-size: 16px;&quot;&gt;Privilege&lt;/font&gt;" style="ellipse;whiteSpace=wrap;html=1;" vertex="1" parent="1">
          <mxGeometry x="-750" y="240" width="100" height="50" as="geometry" />
        </mxCell>
        <mxCell id="M54h-lhk4MuvC9YHBH8j-38" style="rounded=0;orthogonalLoop=1;jettySize=auto;html=1;exitX=1;exitY=1;exitDx=0;exitDy=0;entryX=0;entryY=0;entryDx=0;entryDy=0;endArrow=none;endFill=0;dashed=1;startArrow=open;startFill=0;" edge="1" parent="1" source="M54h-lhk4MuvC9YHBH8j-40" target="M54h-lhk4MuvC9YHBH8j-11">
          <mxGeometry relative="1" as="geometry">
            <mxPoint x="-560" y="370" as="targetPoint" />
          </mxGeometry>
        </mxCell>
        <mxCell id="M54h-lhk4MuvC9YHBH8j-39" value="&amp;lt;&amp;lt;&lt;b&gt;Extends&lt;/b&gt;&amp;gt;&amp;gt;" style="edgeLabel;html=1;align=center;verticalAlign=middle;resizable=0;points=[];rotation=0;" vertex="1" connectable="0" parent="M54h-lhk4MuvC9YHBH8j-38">
          <mxGeometry x="-0.06" y="3" relative="1" as="geometry">
            <mxPoint as="offset" />
          </mxGeometry>
        </mxCell>
        <mxCell id="M54h-lhk4MuvC9YHBH8j-40" value="&lt;font style=&quot;font-size: 16px;&quot;&gt;Error Message&lt;/font&gt;" style="ellipse;whiteSpace=wrap;html=1;" vertex="1" parent="1">
          <mxGeometry x="-1020" y="310" width="100" height="50" as="geometry" />
        </mxCell>
        <mxCell id="M54h-lhk4MuvC9YHBH8j-41" value="&lt;font style=&quot;font-size: 16px;&quot;&gt;Verification&lt;/font&gt;" style="ellipse;whiteSpace=wrap;html=1;" vertex="1" parent="1">
          <mxGeometry x="-830" y="510" width="110" height="55" as="geometry" />
        </mxCell>
        <mxCell id="M54h-lhk4MuvC9YHBH8j-42" style="rounded=0;orthogonalLoop=1;jettySize=auto;html=1;exitX=0.5;exitY=1;exitDx=0;exitDy=0;entryX=0.5;entryY=0;entryDx=0;entryDy=0;endArrow=open;endFill=0;dashed=1;" edge="1" parent="1" source="M54h-lhk4MuvC9YHBH8j-11" target="M54h-lhk4MuvC9YHBH8j-41">
          <mxGeometry relative="1" as="geometry">
            <mxPoint x="-734" y="483" as="targetPoint" />
            <mxPoint x="-780" y="440" as="sourcePoint" />
          </mxGeometry>
        </mxCell>
        <mxCell id="M54h-lhk4MuvC9YHBH8j-43" value="&amp;lt;&amp;lt;&lt;b&gt;Include&lt;/b&gt;&amp;gt;&amp;gt;" style="edgeLabel;html=1;align=center;verticalAlign=middle;resizable=0;points=[];rotation=0;" vertex="1" connectable="0" parent="M54h-lhk4MuvC9YHBH8j-42">
          <mxGeometry x="-0.06" y="3" relative="1" as="geometry">
            <mxPoint x="-4" y="2" as="offset" />
          </mxGeometry>
        </mxCell>
        <mxCell id="M54h-lhk4MuvC9YHBH8j-44" style="rounded=0;orthogonalLoop=1;jettySize=auto;html=1;exitX=0;exitY=0.5;exitDx=0;exitDy=0;entryX=1;entryY=0.5;entryDx=0;entryDy=0;endArrow=none;endFill=0;dashed=1;startArrow=open;startFill=0;" edge="1" parent="1" source="M54h-lhk4MuvC9YHBH8j-46" target="M54h-lhk4MuvC9YHBH8j-10">
          <mxGeometry relative="1" as="geometry">
            <mxPoint x="-881.5025253169431" y="139.74873734152845" as="targetPoint" />
            <mxPoint x="-780.9999999999998" y="195" as="sourcePoint" />
          </mxGeometry>
        </mxCell>
        <mxCell id="M54h-lhk4MuvC9YHBH8j-45" value="&amp;lt;&amp;lt;&lt;b&gt;Include&lt;/b&gt;&amp;gt;&amp;gt;" style="edgeLabel;html=1;align=center;verticalAlign=middle;resizable=0;points=[];rotation=0;" vertex="1" connectable="0" parent="M54h-lhk4MuvC9YHBH8j-44">
          <mxGeometry x="-0.06" y="3" relative="1" as="geometry">
            <mxPoint as="offset" />
          </mxGeometry>
        </mxCell>
        <mxCell id="M54h-lhk4MuvC9YHBH8j-46" value="&lt;font style=&quot;font-size: 16px;&quot;&gt;Success Message&lt;/font&gt;" style="ellipse;whiteSpace=wrap;html=1;" vertex="1" parent="1">
          <mxGeometry x="-630" y="30" width="110" height="60" as="geometry" />
        </mxCell>
        <mxCell id="M54h-lhk4MuvC9YHBH8j-47" style="rounded=0;orthogonalLoop=1;jettySize=auto;html=1;exitX=1;exitY=0.5;exitDx=0;exitDy=0;entryX=0;entryY=0;entryDx=0;entryDy=0;endArrow=none;endFill=0;dashed=1;startArrow=open;startFill=0;" edge="1" parent="1" source="M54h-lhk4MuvC9YHBH8j-49" target="M54h-lhk4MuvC9YHBH8j-10">
          <mxGeometry relative="1" as="geometry">
            <mxPoint x="-850" as="targetPoint" />
          </mxGeometry>
        </mxCell>
        <mxCell id="M54h-lhk4MuvC9YHBH8j-48" value="&amp;lt;&amp;lt;&lt;b&gt;Extends&lt;/b&gt;&amp;gt;&amp;gt;" style="edgeLabel;html=1;align=center;verticalAlign=middle;resizable=0;points=[];rotation=0;" vertex="1" connectable="0" parent="M54h-lhk4MuvC9YHBH8j-47">
          <mxGeometry x="-0.06" y="3" relative="1" as="geometry">
            <mxPoint as="offset" />
          </mxGeometry>
        </mxCell>
        <mxCell id="M54h-lhk4MuvC9YHBH8j-49" value="&lt;font style=&quot;font-size: 16px;&quot;&gt;Error Message&lt;/font&gt;" style="ellipse;whiteSpace=wrap;html=1;" vertex="1" parent="1">
          <mxGeometry x="-1080" y="35" width="100" height="50" as="geometry" />
        </mxCell>
        <mxCell id="M54h-lhk4MuvC9YHBH8j-50" style="rounded=0;orthogonalLoop=1;jettySize=auto;html=1;exitX=1;exitY=0.5;exitDx=0;exitDy=0;endArrow=none;endFill=0;" edge="1" parent="1" source="M54h-lhk4MuvC9YHBH8j-51">
          <mxGeometry relative="1" as="geometry">
            <mxPoint x="-450" y="547.5" as="targetPoint" />
          </mxGeometry>
        </mxCell>
        <mxCell id="M54h-lhk4MuvC9YHBH8j-51" value="&lt;font style=&quot;font-size: 16px;&quot;&gt;View Donation info&lt;/font&gt;" style="ellipse;whiteSpace=wrap;html=1;" vertex="1" parent="1">
          <mxGeometry x="-700" y="520" width="130" height="65" as="geometry" />
        </mxCell>
      </root>
    </mxGraphModel>
  </diagram>
</mxfile>
